<svg width="16" height="16" viewBox="0 0 16 16" fill="none" xmlns="http://www.w3.org/2000/svg">
<g clip-path="url(#clip0_219_3065)">
<path d="M14.0001 10.6665H11.3334C10.9652 10.6665 10.6667 10.965 10.6667 11.3332V13.9998C10.6667 14.368 10.9652 14.6665 11.3334 14.6665H14.0001C14.3683 14.6665 14.6667 14.368 14.6667 13.9998V11.3332C14.6667 10.965 14.3683 10.6665 14.0001 10.6665Z" stroke="#314158" stroke-width="1.33333" stroke-linecap="round" stroke-linejoin="round"/>
<path d="M4.66659 10.6665H1.99992C1.63173 10.6665 1.33325 10.965 1.33325 11.3332V13.9998C1.33325 14.368 1.63173 14.6665 1.99992 14.6665H4.66659C5.03478 14.6665 5.33325 14.368 5.33325 13.9998V11.3332C5.33325 10.965 5.03478 10.6665 4.66659 10.6665Z" stroke="#314158" stroke-width="1.33333" stroke-linecap="round" stroke-linejoin="round"/>
<path d="M9.33333 1.3335H6.66667C6.29848 1.3335 6 1.63197 6 2.00016V4.66683C6 5.03502 6.29848 5.3335 6.66667 5.3335H9.33333C9.70152 5.3335 10 5.03502 10 4.66683V2.00016C10 1.63197 9.70152 1.3335 9.33333 1.3335Z" stroke="#314158" stroke-width="1.33333" stroke-linecap="round" stroke-linejoin="round"/>
<path d="M3.33325 10.6667V8.66667C3.33325 8.48986 3.40349 8.32029 3.52851 8.19526C3.65354 8.07024 3.82311 8 3.99992 8H11.9999C12.1767 8 12.3463 8.07024 12.4713 8.19526C12.5963 8.32029 12.6666 8.48986 12.6666 8.66667V10.6667" stroke="#314158" stroke-width="1.33333" stroke-linecap="round" stroke-linejoin="round"/>
<path d="M8 8.00016V5.3335" stroke="#314158" stroke-width="1.33333" stroke-linecap="round" stroke-linejoin="round"/>
</g>
<defs>
<clipPath id="clip0_219_3065">
<rect width="16" height="16" fill="white"/>
</clipPath>
</defs>
</svg>
